PathFileType  4	(X/Y/Z) /root/TVB/SAM4Dcap/opencap/output/Data/subject2_Session0/MarkerData/mmpose_0.8/2-cameras/PreAugmentation
DataRate	CameraRate	NumFrames	NumMarkers	Units	OrigDataRate	OrigDataStartFrame	OrigNumFrames
60.0	60.0	13	20	m	60.0	1	164
Frame#	Time	Neck			RShoulder			RElbow			RWrist			LShoulder			LElbow			LWrist			midHip			RHip			RKnee			RAnkle			LHip			LKnee			LAnkle			LBigToe			LSmallToe			LHeel			RBigToe			RSmallToe			RHeel			
		X1	Y1	Z1	X2	Y2	Z2	X3	Y3	Z3	X4	Y4	Z4	X5	Y5	Z5	X6	Y6	Z6	X7	Y7	Z7	X8	Y8	Z8	X9	Y9	Z9	X10	Y10	Z10	X11	Y11	Z11	X12	Y12	Z12	X13	Y13	Z13	X14	Y14	Z14	X15	Y15	Z15	X16	Y16	Z16	X17	Y17	Z17	X18	Y18	Z18	X19	Y19	Z19	X20	Y20	Z20	

1	0.0000000	0.0394000	1.3939700	-0.3217000	0.0443300	1.3919300	-0.1552700	-0.0630400	1.1125900	-0.0652700	0.0276600	0.8361500	0.0021200	0.0513500	1.3935300	-0.4890400	-0.0524100	1.1255100	-0.5559400	0.0203400	0.8443600	-0.6028700	0.0273600	0.8814500	-0.3058100	0.0318100	0.8833300	-0.1917900	0.0279400	0.4158600	-0.1853700	-0.0814400	-0.0783400	-0.1804000	0.0308200	0.8795800	-0.4204400	0.0267600	0.4155900	-0.4110200	-0.0882500	-0.0818900	-0.3946400	0.0750700	-0.1447500	-0.4537700	0.0658600	-0.1427400	-0.4526800	-0.1194200	-0.1155300	-0.3732000	0.0514900	-0.1529800	-0.1544900	0.0420200	-0.1499600	-0.1539700	-0.1049900	-0.1093500	-0.1883400
2	0.0166667	0.0438100	1.3921300	-0.3210400	0.0510100	1.3904300	-0.1539300	-0.0638200	1.1097500	-0.0625900	0.0317100	0.8349000	0.0058100	0.0536100	1.3913300	-0.4891700	-0.0528700	1.1197300	-0.5588500	0.0195800	0.8438300	-0.6050300	0.0237700	0.8781700	-0.3060000	0.0286500	0.8793700	-0.1914800	0.0314200	0.4139400	-0.1845500	-0.0791100	-0.0800000	-0.1807700	0.0268800	0.8768900	-0.4211800	0.0285700	0.4134400	-0.4132300	-0.0908200	-0.0813700	-0.3973100	0.0619300	-0.1491500	-0.4541600	0.0535200	-0.1462400	-0.4529700	-0.1171200	-0.1126800	-0.3763400	0.0498200	-0.1546700	-0.1580800	0.0403600	-0.1519000	-0.1574000	-0.1108200	-0.1158800	-0.1916300
3	0.0333333	0.0462900	1.3904000	-0.3211200	0.0533700	1.3881500	-0.1546700	-0.0622600	1.1131000	-0.0624600	0.0322900	0.8380100	0.0057200	0.0561000	1.3902900	-0.4885600	-0.0555300	1.1190000	-0.5603500	0.0160200	0.8433400	-0.6051700	0.0241800	0.8777400	-0.3057500	0.0285700	0.8793600	-0.1922400	0.0345100	0.4150200	-0.1849700	-0.0805800	-0.0757200	-0.1797100	0.0276500	0.8759400	-0.4199000	0.0314000	0.4138400	-0.4123000	-0.0926000	-0.0845100	-0.3926400	0.0629300	-0.1531500	-0.4480400	0.0542400	-0.1507500	-0.4472100	-0.1231600	-0.1167200	-0.3710700	0.0402900	-0.1498400	-0.1469300	0.0314500	-0.1463900	-0.1469200	-0.0994000	-0.1027600	-0.1900800
4	0.0500000	0.0493000	1.3889300	-0.3213900	0.0564100	1.3872500	-0.1552000	-0.0600900	1.1166600	-0.0624500	0.0326600	0.8377000	0.0081100	0.0590000	1.3881900	-0.4885900	-0.0549400	1.1208000	-0.5628500	0.0171400	0.8431800	-0.6074800	0.0194700	0.8706800	-0.3067300	0.0232500	0.8720400	-0.1914800	0.0372200	0.4141000	-0.1847100	-0.0758800	-0.0739000	-0.1819800	0.0237900	0.8692500	-0.4226100	0.0330800	0.4123100	-0.4142600	-0.0914500	-0.0817000	-0.3949000	0.0656700	-0.1505300	-0.4489300	0.0576200	-0.1484800	-0.4476500	-0.1220800	-0.1148600	-0.3739100	0.0521400	-0.1494000	-0.1462000	0.0436100	-0.1463600	-0.1460000	-0.1018500	-0.1058600	-0.1947500
5	0.0666667	0.0524800	1.3879800	-0.3208200	0.0587500	1.3860700	-0.1534700	-0.0637400	1.1180700	-0.0574500	0.0305400	0.8368400	0.0111400	0.0632200	1.3871700	-0.4891800	-0.0547400	1.1202200	-0.5642800	0.0149400	0.8422700	-0.6081500	0.0155100	0.8664500	-0.3056700	0.0187600	0.8674700	-0.1902600	0.0379800	0.4106900	-0.1824600	-0.0784700	-0.0787000	-0.1802800	0.0204000	0.8654400	-0.4217100	0.0304400	0.4113900	-0.4116700	-0.0992800	-0.0850600	-0.3926100	0.0662300	-0.1463500	-0.4558700	0.0571100	-0.1434800	-0.4552900	-0.1337300	-0.1190300	-0.3680100	0.0550200	-0.1561200	-0.1596600	0.0458100	-0.1536500	-0.1592700	-0.1099800	-0.1122600	-0.1892200
6	0.0833333	0.0572900	1.3850300	-0.3212300	0.0618300	1.3827100	-0.1529900	-0.0658500	1.1158600	-0.0543900	0.0313300	0.8373700	0.0132900	0.0699300	1.3847400	-0.4904000	-0.0553600	1.1217700	-0.5640200	0.0120800	0.8437700	-0.6095000	0.0162400	0.8659900	-0.3061500	0.0186500	0.8670600	-0.1900400	0.0388000	0.4082200	-0.1810100	-0.0823000	-0.0852200	-0.1826200	0.0220600	0.8650400	-0.4228600	0.0314000	0.4077500	-0.4135100	-0.1002100	-0.0921000	-0.3923500	0.0695300	-0.1492000	-0.4509300	0.0610400	-0.1474600	-0.4502100	-0.1367900	-0.1283100	-0.3695900	0.0630300	-0.1553100	-0.1544500	0.0539000	-0.1532400	-0.1540600	-0.1196300	-0.1227500	-0.1949300
7	0.1000000	0.0607700	1.3839200	-0.3203900	0.0659200	1.3820300	-0.1520300	-0.0644800	1.1146900	-0.0526500	0.0302000	0.8373300	0.0142000	0.0728300	1.3832500	-0.4897200	-0.0531000	1.1231400	-0.5642200	0.0109700	0.8451300	-0.6115500	0.0152000	0.8598900	-0.3057700	0.0203500	0.8617400	-0.1898800	0.0366300	0.4091500	-0.1822500	-0.0834000	-0.0880400	-0.1821000	0.0182600	0.8579900	-0.4223100	0.0334900	0.4073900	-0.4137000	-0.0965300	-0.0914800	-0.3925600	0.0827700	-0.1442600	-0.4513500	0.0731500	-0.1429300	-0.4507800	-0.1335700	-0.1273100	-0.3705400	0.0677500	-0.1544800	-0.1522000	0.0590400	-0.1524700	-0.1518900	-0.1196500	-0.1226200	-0.1928300
8	0.1166667	0.0650800	1.3814300	-0.3198300	0.0742500	1.3797900	-0.1521600	-0.0560600	1.1177000	-0.0544900	0.0322300	0.8381900	0.0143200	0.0729800	1.3806200	-0.4886300	-0.0578800	1.1172200	-0.5672600	0.0134300	0.8423900	-0.6131500	0.0130000	0.8625800	-0.3076500	0.0186300	0.8642700	-0.1919900	0.0381100	0.4115300	-0.1820700	-0.0751600	-0.0889700	-0.1786600	0.0155300	0.8608100	-0.4239800	0.0377200	0.4087500	-0.4165600	-0.0926700	-0.0888000	-0.3942800	0.0836000	-0.1466600	-0.4527300	0.0747000	-0.1453500	-0.4515000	-0.1230700	-0.1229600	-0.3748500	0.0724600	-0.1533600	-0.1512700	0.0632200	-0.1513600	-0.1506100	-0.1064800	-0.1240200	-0.1884000
9	0.1333333	0.0673400	1.3805900	-0.3197600	0.0756900	1.3785800	-0.1527100	-0.0561000	1.1127200	-0.0515400	0.0299400	0.8382300	0.0162700	0.0759600	1.3803100	-0.4879100	-0.0552200	1.1231900	-0.5661100	0.0082700	0.8449700	-0.6145300	0.0119100	0.8632800	-0.3057700	0.0164300	0.8653800	-0.1901700	0.0375900	0.4082800	-0.1817800	-0.0843700	-0.0890400	-0.1808900	0.0155500	0.8607800	-0.4220100	0.0364000	0.4066600	-0.4164900	-0.0937300	-0.0902200	-0.3938900	0.0742600	-0.1460200	-0.4568600	0.0652100	-0.1442400	-0.4559500	-0.1241600	-0.1218600	-0.3740800	0.0614700	-0.1546000	-0.1541300	0.0523400	-0.1523900	-0.1537400	-0.1192300	-0.1246300	-0.1934300
10	0.1500000	0.0705600	1.3787100	-0.3193100	0.0792500	1.3762000	-0.1522000	-0.0593200	1.1152200	-0.0494800	0.0294500	0.8378300	0.0182300	0.0788200	1.3788700	-0.4875100	-0.0579300	1.1208300	-0.5688600	0.0067700	0.8451100	-0.6148600	0.0097600	0.8554200	-0.3081500	0.0155800	0.8575000	-0.1921200	0.0383200	0.4111500	-0.1821400	-0.0895100	-0.0875800	-0.1818900	0.0121900	0.8530000	-0.4248200	0.0380300	0.4063700	-0.4168800	-0.0956900	-0.0897900	-0.3936000	0.0734200	-0.1468400	-0.4555700	0.0646900	-0.1453000	-0.4542300	-0.1272300	-0.1214700	-0.3731600	0.0599200	-0.1560100	-0.1538300	0.0511500	-0.1538600	-0.1535600	-0.1215800	-0.1222900	-0.1958700
11	0.1666667	0.0743900	1.3770500	-0.3203500	0.0838800	1.3746100	-0.1534800	-0.0638700	1.1120900	-0.0448600	0.0287600	0.8355300	0.0183700	0.0817300	1.3767700	-0.4883300	-0.0599100	1.1209700	-0.5702500	0.0033700	0.8462800	-0.6141400	0.0069500	0.8596300	-0.3053300	0.0119400	0.8620200	-0.1894800	0.0378300	0.4049500	-0.1801400	-0.0853400	-0.0891800	-0.1821600	0.0101600	0.8569800	-0.4218200	0.0399300	0.4042300	-0.4174500	-0.1008300	-0.0907300	-0.3905800	0.0700300	-0.1470100	-0.4510200	0.0608400	-0.1453200	-0.4506600	-0.1390100	-0.1270200	-0.3698300	0.0678500	-0.1542800	-0.1516700	0.0586900	-0.1527100	-0.1513700	-0.1215800	-0.1256300	-0.1938800
12	0.1833333	0.0783900	1.3751700	-0.3193400	0.0887700	1.3722200	-0.1528000	-0.0610700	1.1124200	-0.0454900	0.0276500	0.8361000	0.0189600	0.0847900	1.3754900	-0.4870300	-0.0607800	1.1209300	-0.5732400	0.0024900	0.8462300	-0.6157000	0.0045700	0.8569900	-0.3056300	0.0105300	0.8597100	-0.1893700	0.0396600	0.4046400	-0.1812900	-0.0812900	-0.0804300	-0.1849700	0.0068600	0.8540800	-0.4225600	0.0398200	0.4024800	-0.4184200	-0.1013600	-0.0912800	-0.3916500	0.0663000	-0.1476300	-0.4496900	0.0576500	-0.1457600	-0.4485300	-0.1372600	-0.1245000	-0.3698300	0.0667800	-0.1511400	-0.1529900	0.0581200	-0.1491500	-0.1526300	-0.1157000	-0.1148400	-0.1993300
13	0.2000000	0.0785400	1.3739000	-0.3204200	0.0871400	1.3701000	-0.1535000	-0.0596700	1.1131800	-0.0440600	0.0231400	0.8376500	0.0199000	0.0868400	1.3752700	-0.4884100	-0.0625700	1.1253200	-0.5766600	-0.0024700	0.8477800	-0.6148000	0.0068300	0.8576200	-0.3038200	0.0131600	0.8598000	-0.1879900	0.0396800	0.4034300	-0.1803600	-0.0890500	-0.0851000	-0.1830900	0.0087000	0.8552300	-0.4203600	0.0416500	0.4037200	-0.4183700	-0.1031100	-0.0921700	-0.3914400	0.0600800	-0.1502200	-0.4483300	0.0506500	-0.1482800	-0.4481200	-0.1388500	-0.1254200	-0.3712900	0.0558800	-0.1568000	-0.1614800	0.0452900	-0.1546500	-0.1613600	-0.1218700	-0.1175700	-0.1909700
